# AST/ASF file generated using VICON BodyLanguage
# -----------------------------------------------
:version 1.10
:name VICON
:units
  mass 1.0
  length 0.45
  angle deg
:documentation
   .ast/.asf automatically generated from VICON data using
   VICON BodyBuilder and BodyLanguage model FoxedUp or BRILLIANT.MOD
:root
   order TX TY TZ RX RY RZ
   axis XYZ
   position 0 0 0  
   orientation 0 0 0 
:bonedata
  begin
     id 1 
     name lhipjoint
     direction 0.64773 -0.699417 0.302095 
     length 2.48597 
     axis 0 0 0  XYZ
  end
  begin
     id 2 
     name lfemur
     direction 0.34202 -0.939693 0  
     length 6.71947  
     axis 0 0 20  XYZ
    dof rx ry rz
    limits (-160.0 20.0)
           (-70.0 70.0)
           (-60.0 70.0)
  end
  begin
     id 3 
     name ltibia
     direction 0.34202 -0.939693 0   
     length 8.08777   
     axis 0 0 20   XYZ
    dof rx
    limits (-10.0 170.0)
  end
  begin
     id 4 
     name lfoot
     direction 0.0808503 -0.222134 0.971658   
     length 2.08264   
     axis -90 7.62852e-016 20   XYZ
    dof rx rz
    limits (-45.0 90.0)
           (-70.0 20.0)
  end
  begin
     id 5 
     name ltoes
     direction 1.53502e-011 -4.22007e-011 1   
     length 1.04662   
     axis -90 7.62852e-016 20   XYZ
    dof rx
    limits (-90.0 20.0)
  end
  begin
     id 6 
     name rhipjoint
     direction -0.610924 -0.726792 0.313919   
     length 2.39233  
     axis 0 0 0  XYZ 
  end
  begin
     id 7 
     name rfemur
     direction -0.34202 -0.939693 0   
     length 6.96955   
     axis 0 0 -20   XYZ
    dof rx ry rz
    limits (-160.0 20.0)
           (-70.0 70.0)
           (-70.0 60.0)
  end
  begin
     id 8 
     name rtibia
     direction -0.34202 -0.939693 0   
     length 8.19584   
     axis 0 0 -20   XYZ
    dof rx
    limits (-10.0 170.0)
 end
 begin
     id 9 
     name rfoot
     direction -0.077777 -0.213691 0.9738   
     length 2.07539  
     axis -90 -7.62852e-016 -20   XYZ
    dof rx rz
    limits (-45.0 90.0)
           (-20.0 70.0)
  end
  begin
     id 10 
     name rtoes
     direction -1.53558e-011 -4.22006e-011 1   
     length 1.04381   
     axis -90 -7.62852e-016 -20   XYZ
    dof rx
    limits (-90.0 20.0)
  end
  begin
     id 11 
     name lowerback
     direction -0.00971646 0.996074 0.0879841   
     length 1.67643   
     axis 0 0 0   XYZ
    dof rx ry rz
    limits (-20.0 45.0)
           (-30.0 30.0)
           (-30.0 30.0)
  end
  begin
     id 12 
     name upperback
     direction 0.0127391 0.991676 0.128127   
     length 1.63741   
     axis 0 0 0   XYZ
    dof rx ry rz
    limits (-20.0 45.0)
           (-30.0 30.0)
           (-30.0 30.0)
  end
  begin
     id 13 
     name thorax
     direction 0.0167583 0.996049 0.0872067   
     length 1.65931   
     axis 0 0 0   XYZ
    dof rx ry rz
    limits (-20.0 45.0)
           (-30.0 30.0)
           (-30.0 30.0)
  end
  begin
     id 14 
     name lowerneck
     direction -0.0317829 0.998312 0.0486079   
     length 1.79021   
     axis 0 0 0   XYZ
    dof rx ry rz
    limits (-20.0 45.0)
           (-30.0 30.0)
           (-30.0 30.0)
  end
  begin
     id 15 
     name upperneck
     direction 0.0896851 0.972452 -0.215159   
     length 1.78797   
     axis 0 0 0   XYZ
    dof rx ry rz
    limits (-20.0 45.0)
           (-30.0 30.0)
           (-30.0 30.0)
  end
  begin
     id 16
     name head
     direction 0.0310949 0.996503 -0.0775582  
     length 1.81549  
     axis 0 0 0   XYZ
    dof rx ry rz
    limits (-20.0 45.0)
           (-30.0 30.0)
           (-30.0 30.0)
  end
  begin
     id 17 
     name lclavicle
     direction 0.853638 0.502051 -0.138733  
     length 3.31627  
     axis 0 0 0   XYZ
    dof ry rz
    limits (-20.0 10.0)
           (0.0 20.0)
  end
  begin
     id 18 
     name lhumerus
     direction 1 -4.48962e-011 -1.41788e-018   
     length 5.54893   
     axis 180 -30 -90   XYZ
    dof rx ry rz
    limits (-60.0 90.0)
           (-90.0 90.0)
           (-90.0 90.0)
  end
  begin
     id 19
     name lradius
     direction 1 -4.48962e-011 -4.95754e-027   
     length 3.02898   
     axis 180 -30 -90   XYZ
    dof rx
    limits (-10.0 170.0)
  end
  begin
     id 20
     name lwrist
     direction 1 -4.48952e-011 -1.03764e-026   
     length 1.51449   
     axis 9.09556e-015 90 90   XYZ
    dof ry
    limits (-180.0 0.0)
 end
  begin
     id 21 
     name lhand
     direction 1 -4.4902e-011 -2.07528e-026   
     length 0.640951   
     axis 1.3242e-014 90 90   XYZ
    dof rx rz
    limits (-90.0 90.0)
           (-45.0 45.0)
  end
  begin
     id 22 
     name lfingers
     direction 1 -4.49014e-011 -4.15056e-026   
     length 0.516751   
     axis 2.64841e-014 90 90   XYZ
    dof rx
    limits (0.0 90.0)
  end
  begin
     id 23
     name lthumb
     direction 0.707107 -6.35008e-011 0.707107   
     length 0.741954   
     axis -90 45 2.85299e-015   XYZ
    dof rx rz
    limits (-45.0 45.0)
           (-45.0 45.0)
  end
  begin
     id 24 
     name rclavicle
     direction -0.888531 0.455324 -0.0565039   
     length 3.20126  
     axis 0 0 0   XYZ 
    dof ry rz
    limits (-10.0 20.0)
           (-20.0 0.0)
  end
  begin
     id 25 
     name rhumerus
     direction -1 -4.48946e-011 -8.98298e-028  
     length 5.3519   
     axis 180 30 90   XYZ
    dof rx ry rz
    limits (-90.0 60.0)
           (-90.0 90.0)
           (-90.0 90.0)
  end
  begin
     id 26 
     name rradius
     direction -1 -4.4899e-011 -3.18779e-027   
     length 3.02531   
     axis 180 30 90   XYZ
    dof rx
    limits (-10.0 170.0)
  end
  begin
     id 27 
     name rwrist
     direction -1 -4.4897e-011 -1.03764e-026   
     length 1.51266   
     axis 9.09556e-015 -90 -90   XYZ
    dof ry
    limits (-180.0 0.0)
  end
  begin
     id 28
     name rhand
     direction -1 -4.48941e-011 -2.07528e-026   
     length 0.78389   
     axis 1.3242e-014 -90 -90   XYZ
    dof rx rz
    limits (-90.0 90.0)
           (-45.0 45.0)
  end
  begin
     id 29
     name rfingers
     direction -1 -4.49012e-011 -4.15056e-026   
     length 0.631992   
     axis 2.64841e-014 -90 -90   XYZ
    dof rx
    limits (0.0 90.0)
  end
  begin
     id 30
     name rthumb
     direction -0.707107 -6.3496e-011 0.707107   
     length 0.907418   
     axis -90 -45 -2.85299e-015   XYZ
    dof rx rz
    limits (-45.0 45.0)
           (-45.0 45.0)
  end
:hierarchy
  begin
    root lhipjoint rhipjoint lowerback
    lhipjoint lfemur
    lfemur ltibia
    ltibia lfoot
    lfoot ltoes
    rhipjoint rfemur
    rfemur rtibia
    rtibia rfoot
    rfoot rtoes
    lowerback upperback
    upperback thorax
    thorax lowerneck lclavicle rclavicle
    lowerneck upperneck
    upperneck head
    lclavicle lhumerus
    lhumerus lradius
    lradius lwrist
    lwrist lhand lthumb
    lhand lfingers
    rclavicle rhumerus
    rhumerus rradius
    rradius rwrist
    rwrist rhand rthumb
    rhand rfingers
  end

#!OML:ASF E:\Style3\Style3.ASF
:FULLY-SPECIFIED
:DEGREES
1107
root 0.55744 17.7772 0.929843 -57.2317 87.8363 286.804
lowerback -11.2681 -0.105275 -4.03105
upperback -11.3204 0.764628 -2.5623
thorax -5.63651 0.865333 -0.422365
lowerneck -10.9399 3.55542 -0.813684
upperneck 22.9143 2.2883 15.788
head 8.74812 2.97611 5.87063
rclavicle -2.78299e-015 -9.54166e-015
rhumerus -60.7576 52.7875 -71.9913
rradius 118.865
rwrist -3.62666
rhand 5.47962 23.7047
rfingers 7.12502
rthumb 30.8273 -3.72957
lclavicle -2.78299e-015 -9.54166e-015
lhumerus -2.41666 10.0549 9.77645
lradius 75.2593
lwrist 56.3047
lhand 6.04307 26.6735
lfingers 7.12502
lthumb 31.3644 54.0049
rfemur -15.0969 9.76647 20.1728
rtibia 16.771
rfoot -17.644 -16.5937
rtoes -10.1667
lfemur -5.53788 -21.5607 -10.7843
ltibia 1.11319e-014
lfoot -14.348 24.1008
ltoes -6.20911
1108
root 0.550302 17.7785 0.923847 -57.6225 87.7926 286.405
lowerback -11.1914 -0.110931 -4.01476
upperback -11.3309 0.751136 -2.47918
thorax -5.69035 0.8607 -0.346361
lowerneck -10.7699 3.34199 -0.995429
upperneck 22.6216 2.06051 15.7097
head 8.63377 2.82188 5.82736
rclavicle -2.38542e-014 4.45278e-014
rhumerus -57.1545 52.9593 -68.0626
rradius 118.982
rwrist -3.12964
rhand 3.53709 24.0115
rfingers 7.12502
rthumb 28.9737 -3.75675
lclavicle -2.38542e-014 4.45278e-014
lhumerus -2.31612 7.78689 9.18232
lradius 76.7384
lwrist 54.2156
lhand 5.61513 26.1895
lfingers 7.12502
lthumb 30.9565 53.5993
rfemur -15.1512 9.91311 20.1823
rtibia 16.7952
rfoot -17.6 -16.7187
rtoes -10.1888
lfemur -5.58105 -21.5489 -10.7317
ltibia -7.95139e-015
lfoot -14.3735 24.0622
ltoes -5.28685
1109
root 0.543148 17.7786 0.917306 -58.2251 87.7526 285.791
lowerback -11.1454 -0.126932 -3.99119
upperback -11.3377 0.725915 -2.39298
thorax -5.72287 0.849658 -0.271219
lowerneck -10.668 3.15793 -1.20402
upperneck 22.4148 1.85512 15.7092
head 8.55877 2.69135 5.82752
rclavicle -1.45113e-014 -4.77083e-015
rhumerus -53.6025 53.0267 -64.327
rradius 119.117
rwrist -2.66136
rhand 1.90729 24.3376
rfingers 7.12502
rthumb 27.4159 -3.68769
lclavicle -1.45113e-014 -4.77083e-015
lhumerus -2.19004 5.59872 8.60797
lradius 78.208
lwrist 51.5908
lhand 5.5064 25.4179
lfingers 7.12502
lthumb 30.8529 52.8473
rfemur -15.1676 9.94204 20.2056
rtibia 16.7683
rfoot -17.5506 -16.7691
rtoes -10.4442
lfemur -5.62859 -21.5472 -10.6811
ltibia 1.59028e-015
lfoot -14.4165 24.0325
ltoes -5.67424
1110
root 0.538003 17.7786 0.909867 -59.4933 87.719 284.568
lowerback -11.0724 -0.142559 -3.92544
upperback -11.3244 0.694949 -2.32503
thorax -5.74674 0.830717 -0.238792
lowerneck -10.6612 2.95997 -1.35472
upperneck 22.2992 1.61674 15.6568
head 8.53902 2.552 5.80618
rclavicle 1.21259e-014 -7.95139e-015
rhumerus -50.2642 53.1267 -61.0145
rradius 119.416
rwrist -2.20434
rhand 0.0307063 23.8408
rfingers 7.12502
rthumb 25.6198 -4.45571
lclavicle 1.21259e-014 -7.95139e-015
lhumerus -2.05721 3.42965 8.05293
lradius 79.7726
lwrist 48.6861
lhand 5.04749 24.861
lfingers 7.12502
lthumb 30.4153 52.3723
rfemur -15.0941 10.0369 20.2348
rtibia 16.7202
rfoot -17.4817 -16.8951
rtoes -10.4725
lfemur -5.60366 -21.5825 -10.6651
ltibia 1.74931e-014
lfoot -14.3095 24.0847
ltoes -6.88965
1111
root 0.532997 17.779 0.901567 -62.2596 87.6849 281.959
lowerback -10.8203 -0.130805 -3.79767
upperback -11.3176 0.682901 -2.28283
thorax -5.87508 0.81592 -0.269743
lowerneck -10.612 2.72486 -1.39509
upperneck 22.1906 1.33375 15.4635
head 8.5221 2.38535 5.7109
rclavicle -1.59028e-014 1.59028e-014
rhumerus -47.1671 53.1006 -57.9088
rradius 119.696
rwrist -2.14333
rhand -1.58124 23.452
rfingers 7.12502
rthumb 24.075 -5.05777
lclavicle -1.59028e-014 1.59028e-014
lhumerus -1.85788 1.18737 7.46917
lradius 81.3458
lwrist 45.899
lhand 4.76433 24.1335
lfingers 7.12502
lthumb 30.1452 51.6944
rfemur -14.9129 10.0341 20.3081
rtibia 16.6956
rfoot -17.4684 -16.9672
rtoes -10.3888
lfemur -5.45101 -21.6869 -10.669
ltibia -1.59028e-014
lfoot -14.0977 24.1608
ltoes -7.4169
